# xmcd
#
# Track frame offsets:
#	225
#	14798
#	36866
#	51269
#	62255
#	75725
#	91331
#	101146
#	115023
#	132198
#	143594
#	154889
#	169591
#
# Disc length: 2445 seconds
#
# Revision: 0
# Processed by: cddbd v1.5.2PL0 Copyright (c) Steve Scherf et al.
# Submitted via: dBpowerAMP V4.0
#
DISCID=a6098a0d
DTITLE=Coincidence - Blue Clear Sky
DYEAR=1900
DGENRE=
TTITLE0=Can You Help Me Out Of This Dream
TTITLE1=Fall Apart With You
TTITLE2=Southern Streamline
TTITLE3=Allright Allready
TTITLE4=Another Chance At Love
TTITLE5=Four Strong Winds
TTITLE6=Under A Stormy Sky
TTITLE7=I Don't Care
TTITLE8=Secret Love
TTITLE9=Highway 40 Blues
TTITLE10=Take Your Memories With You
TTITLE11=Writing On The Wall
TTITLE12=White Line Fever
EXTD=
EXTT0=
EXTT1=
EXTT2=
EXTT3=
EXTT4=
EXTT5=
EXTT6=
EXTT7=
EXTT8=
EXTT9=
EXTT10=
EXTT11=
EXTT12=
PLAYORDER=
